# This file uses centimeters as units for non-parametric coordinates.

mtllib Ship selector.mtl
g default
v 0.648495 -0.681868 -0.210709
v 0.551643 -0.681868 -0.400792
v 0.400792 -0.681868 -0.551643
v 0.210709 -0.681868 -0.648495
v 0.000000 -0.681868 -0.681868
v -0.210709 -0.681868 -0.648495
v -0.400792 -0.681868 -0.551643
v -0.551643 -0.681868 -0.400792
v -0.648495 -0.681868 -0.210709
v -0.681868 -0.681868 0.000000
v -0.648495 -0.681868 0.210709
v -0.551643 -0.681868 0.400792
v -0.400792 -0.681868 0.551643
v -0.210709 -0.681868 0.648495
v -0.000000 -0.681868 0.681868
v 0.210709 -0.681868 0.648495
v 0.400792 -0.681868 0.551642
v 0.551642 -0.681868 0.400792
v 0.648495 -0.681868 0.210709
v 0.681868 -0.681868 0.000000
v 0.648495 0.681868 -0.210709
v 0.551643 0.681868 -0.400792
v 0.400792 0.681868 -0.551643
v 0.210709 0.681868 -0.648495
v 0.000000 0.681868 -0.681868
v -0.210709 0.681868 -0.648495
v -0.400792 0.681868 -0.551643
v -0.551643 0.681868 -0.400792
v -0.648495 0.681868 -0.210709
v -0.681868 0.681868 0.000000
v -0.648495 0.681868 0.210709
v -0.551643 0.681868 0.400792
v -0.400792 0.681868 0.551643
v -0.210709 0.681868 0.648495
v -0.000000 0.681868 0.681868
v 0.210709 0.681868 0.648495
v 0.400792 0.681868 0.551642
v 0.551642 0.681868 0.400792
v 0.648495 0.681868 0.210709
v 0.681868 0.681868 0.000000
v 0.644874 -0.681868 -0.209532
v 0.548563 -0.681868 -0.398554
v 0.398554 -0.681868 -0.548563
v 0.209532 -0.681868 -0.644874
v 0.000000 -0.681868 -0.678061
v -0.209532 -0.681868 -0.644874
v -0.398554 -0.681868 -0.548563
v -0.548563 -0.681868 -0.398554
v -0.644874 -0.681868 -0.209532
v -0.678061 -0.681868 0.000000
v -0.644874 -0.681868 0.209532
v -0.548563 -0.681868 0.398554
v -0.398554 -0.681868 0.548563
v -0.209532 -0.681868 0.644874
v -0.000000 -0.681868 0.678061
v 0.209532 -0.681868 0.644874
v 0.398554 -0.681868 0.548563
v 0.548563 -0.681868 0.398554
v 0.644874 -0.681868 0.209532
v 0.678061 -0.681868 0.000000
v 0.644874 0.681868 -0.209532
v 0.548563 0.681868 -0.398554
v 0.398554 0.681868 -0.548563
v 0.209532 0.681868 -0.644874
v 0.000000 0.681868 -0.678061
v -0.209532 0.681868 -0.644874
v -0.398554 0.681868 -0.548563
v -0.548563 0.681868 -0.398554
v -0.644874 0.681868 -0.209532
v -0.678061 0.681868 0.000000
v -0.644874 0.681868 0.209532
v -0.548563 0.681868 0.398554
v -0.398554 0.681868 0.548563
v -0.209532 0.681868 0.644874
v -0.000000 0.681868 0.678061
v 0.209532 0.681868 0.644874
v 0.398554 0.681868 0.548563
v 0.548563 0.681868 0.398554
v 0.644874 0.681868 0.209532
v 0.678061 0.681868 0.000000
vt 0.000000 0.001527
vt 0.049976 0.001451
vt 0.099951 0.001374
vt 0.149927 0.001298
vt 0.199902 0.001222
vt 0.249878 0.001145
vt 0.299854 0.001069
vt 0.349829 0.000993
vt 0.399805 0.000916
vt 0.449780 0.000840
vt 0.499756 0.000764
vt 0.549732 0.000687
vt 0.599707 0.000611
vt 0.649683 0.000535
vt 0.699658 0.000458
vt 0.749634 0.000382
vt 0.799609 0.000305
vt 0.849585 0.000229
vt 0.899561 0.000153
vt 0.949536 0.000076
vt 0.999512 0.000000
vt 0.000488 0.320994
vt 0.050464 0.320917
vt 0.100439 0.320841
vt 0.150415 0.320765
vt 0.200391 0.320688
vt 0.250366 0.320612
vt 0.300342 0.320535
vt 0.350317 0.320459
vt 0.400293 0.320383
vt 0.450269 0.320307
vt 0.500244 0.320230
vt 0.550220 0.320154
vt 0.600195 0.320077
vt 0.650171 0.320001
vt 0.700146 0.319925
vt 0.750122 0.319848
vt 0.800098 0.319772
vt 0.850073 0.319696
vt 0.900049 0.319619
vt 0.950024 0.319543
vt 1.000000 0.319467
vt 0.999071 0.000064
vt 0.999084 0.320889
vt 0.949177 0.320891
vt 0.949163 0.000066
vt 0.899269 0.320893
vt 0.899256 0.000068
vt 0.849361 0.320895
vt 0.849348 0.000070
vt 0.799453 0.320897
vt 0.799440 0.000072
vt 0.749545 0.320899
vt 0.749532 0.000075
vt 0.699638 0.320901
vt 0.699625 0.000076
vt 0.649730 0.320903
vt 0.649717 0.000078
vt 0.599822 0.320905
vt 0.599809 0.000081
vt 0.549914 0.320907
vt 0.549901 0.000083
vt 0.500007 0.320909
vt 0.499994 0.000085
vt 0.450099 0.320911
vt 0.450086 0.000087
vt 0.400191 0.320913
vt 0.400178 0.000089
vt 0.350283 0.320915
vt 0.350270 0.000091
vt 0.300375 0.320917
vt 0.300362 0.000093
vt 0.250468 0.320919
vt 0.250455 0.000095
vt 0.200560 0.320921
vt 0.200547 0.000097
vt 0.150652 0.320923
vt 0.150639 0.000099
vt 0.100744 0.320925
vt 0.100731 0.000101
vt 0.050836 0.320927
vt 0.050824 0.000103
vt 0.000929 0.320929
vt 0.000916 0.000105
vn 0.951057 0.000000 -0.309016
vn 0.809017 0.000000 -0.587785
vn 0.809017 0.000000 -0.587785
vn 0.951057 0.000000 -0.309016
vn 0.587785 0.000000 -0.809017
vn 0.587785 0.000000 -0.809017
vn 0.309017 0.000000 -0.951057
vn 0.309017 0.000000 -0.951057
vn -0.000000 0.000000 -1.000000
vn -0.000000 0.000000 -1.000000
vn -0.309017 0.000000 -0.951057
vn -0.309017 0.000000 -0.951057
vn -0.587785 0.000000 -0.809017
vn -0.587785 0.000000 -0.809017
vn -0.809017 0.000000 -0.587785
vn -0.809017 0.000000 -0.587785
vn -0.951057 0.000000 -0.309017
vn -0.951057 0.000000 -0.309017
vn -1.000000 0.000000 0.000000
vn -1.000000 0.000000 0.000000
vn -0.951057 0.000000 0.309017
vn -0.951057 0.000000 0.309017
vn -0.809017 0.000000 0.587785
vn -0.809017 0.000000 0.587785
vn -0.587785 0.000000 0.809017
vn -0.587785 0.000000 0.809017
vn -0.309017 0.000000 0.951057
vn -0.309017 0.000000 0.951057
vn 0.000000 0.000000 1.000000
vn 0.000000 0.000000 1.000000
vn 0.309017 0.000000 0.951057
vn 0.309017 0.000000 0.951057
vn 0.587785 0.000000 0.809017
vn 0.587785 0.000000 0.809017
vn 0.809017 0.000000 0.587785
vn 0.809017 0.000000 0.587785
vn 0.951057 0.000000 0.309017
vn 0.951057 0.000000 0.309017
vn 1.000000 0.000000 0.000001
vn 1.000000 0.000000 0.000001
vn -0.951057 0.000000 0.309016
vn -0.951057 0.000000 0.309016
vn -0.809017 0.000000 0.587785
vn -0.809017 0.000000 0.587785
vn -0.587785 0.000000 0.809017
vn -0.587785 0.000000 0.809017
vn -0.309017 0.000000 0.951057
vn -0.309017 0.000000 0.951057
vn 0.000000 0.000000 1.000000
vn 0.000000 0.000000 1.000000
vn 0.309017 0.000000 0.951057
vn 0.309017 0.000000 0.951057
vn 0.587785 0.000000 0.809017
vn 0.587785 0.000000 0.809017
vn 0.809017 0.000000 0.587785
vn 0.809017 0.000000 0.587785
vn 0.951057 0.000000 0.309017
vn 0.951057 0.000000 0.309017
vn 1.000000 0.000000 0.000000
vn 1.000000 0.000000 0.000000
vn 0.951056 0.000000 -0.309017
vn 0.951056 0.000000 -0.309017
vn 0.809017 0.000000 -0.587785
vn 0.809017 0.000000 -0.587785
vn 0.587785 0.000000 -0.809017
vn 0.587785 0.000000 -0.809017
vn 0.309017 0.000000 -0.951057
vn 0.309017 0.000000 -0.951057
vn -0.000000 0.000000 -1.000000
vn -0.000000 0.000000 -1.000000
vn -0.309017 0.000000 -0.951057
vn -0.309017 0.000000 -0.951057
vn -0.587785 0.000000 -0.809017
vn -0.587785 0.000000 -0.809017
vn -0.809017 0.000000 -0.587785
vn -0.809017 0.000000 -0.587785
vn -0.951057 0.000000 -0.309017
vn -0.951057 0.000000 -0.309017
vn -1.000000 0.000000 -0.000001
vn -1.000000 0.000000 -0.000001
s 1
g Ship_selector
usemtl initialShadingGroup
f 1/1/1 2/2/2 22/23/3 21/22/4
f 2/2/2 3/3/5 23/24/6 22/23/3
f 3/3/5 4/4/7 24/25/8 23/24/6
f 4/4/7 5/5/9 25/26/10 24/25/8
f 5/5/9 6/6/11 26/27/12 25/26/10
f 6/6/11 7/7/13 27/28/14 26/27/12
f 7/7/13 8/8/15 28/29/16 27/28/14
f 8/8/15 9/9/17 29/30/18 28/29/16
f 9/9/17 10/10/19 30/31/20 29/30/18
f 10/10/19 11/11/21 31/32/22 30/31/20
f 11/11/21 12/12/23 32/33/24 31/32/22
f 12/12/23 13/13/25 33/34/26 32/33/24
f 13/13/25 14/14/27 34/35/28 33/34/26
f 14/14/27 15/15/29 35/36/30 34/35/28
f 15/15/29 16/16/31 36/37/32 35/36/30
f 16/16/31 17/17/33 37/38/34 36/37/32
f 17/17/33 18/18/35 38/39/36 37/38/34
f 18/18/35 19/19/37 39/40/38 38/39/36
f 19/19/37 20/20/39 40/41/40 39/40/38
f 20/20/39 1/21/1 21/42/4 40/41/40
s 2
f 41/43/41 61/44/42 62/45/43 42/46/44
f 42/46/44 62/45/43 63/47/45 43/48/46
f 43/48/46 63/47/45 64/49/47 44/50/48
f 44/50/48 64/49/47 65/51/49 45/52/50
f 45/52/50 65/51/49 66/53/51 46/54/52
f 46/54/52 66/53/51 67/55/53 47/56/54
f 47/56/54 67/55/53 68/57/55 48/58/56
f 48/58/56 68/57/55 69/59/57 49/60/58
f 49/60/58 69/59/57 70/61/59 50/62/60
f 50/62/60 70/61/59 71/63/61 51/64/62
f 51/64/62 71/63/61 72/65/63 52/66/64
f 52/66/64 72/65/63 73/67/65 53/68/66
f 53/68/66 73/67/65 74/69/67 54/70/68
f 54/70/68 74/69/67 75/71/69 55/72/70
f 55/72/70 75/71/69 76/73/71 56/74/72
f 56/74/72 76/73/71 77/75/73 57/76/74
f 57/76/74 77/75/73 78/77/75 58/78/76
f 58/78/76 78/77/75 79/79/77 59/80/78
f 59/80/78 79/79/77 80/81/79 60/82/80
f 60/82/80 80/81/79 61/83/42 41/84/41
