# This file uses centimeters as units for non-parametric coordinates.

mtllib corner-inf.mtl
g default
v -0.500000 -0.500000 0.500000
v 0.500000 -0.500000 0.500000
v -0.500000 0.500000 0.500000
v 0.500000 -0.213704 0.500000
v -0.500000 0.500000 -0.500000
v 0.500000 0.500000 -0.500000
v -0.500000 -0.500000 -0.500000
v 0.500000 -0.500000 -0.500000
v 0.000000 -0.500000 0.500000
v 0.000000 -0.500000 -0.500000
v 0.000000 0.500000 -0.500000
v 0.000000 0.500000 0.500000
v -0.500000 0.500000 0.000000
v 0.000000 0.500000 0.000000
v 0.500000 0.500000 0.000000
v 0.500000 -0.500000 0.000000
v 0.000000 -0.500000 0.000000
v -0.500000 -0.500000 0.000000
vt 0.274901 0.035745
vt 0.516470 0.079102
vt 0.236998 0.274657
vt 0.503701 0.147067
vt 0.265358 0.523470
vt 0.505702 0.489494
vt 0.300046 0.761991
vt 0.538621 0.728164
vt 0.334100 1.000000
vt 0.572171 0.966185
vt 0.752692 0.125847
vt 0.706325 0.361700
vt 0.036696 0.000000
vt 0.000000 0.237976
vt 0.395030 0.052821
vt 0.453139 0.983107
vt 0.419342 0.745207
vt 0.385660 0.507877
vt 0.352724 0.281027
vt 0.118680 0.256176
vt 0.247374 0.402144
vt 0.369021 0.391336
vt 0.489763 0.368052
vt 0.588421 0.338507
vt 0.555306 0.847195
vt 0.634772 0.102641
vt 0.436237 0.864140
vt 0.155617 0.018013
vt 0.317153 0.881013
vn 0.000000 0.000000 1.000000
vn 0.000000 0.000000 1.000000
vn 0.000000 0.000000 1.000000
vn 0.000000 0.000000 1.000000
vn 0.000000 1.000000 0.000000
vn 0.173003 0.969608 0.173003
vn 0.318582 0.892755 0.318582
vn 0.000000 1.000000 0.000000
vn 0.000000 0.000000 -1.000000
vn 0.000000 0.000000 -1.000000
vn 0.000000 0.000000 -1.000000
vn 0.000000 0.000000 -1.000000
vn 0.000000 -1.000000 0.000000
vn 0.000000 -1.000000 0.000000
vn 0.000000 -1.000000 0.000000
vn 0.000000 -1.000000 0.000000
vn 1.000000 0.000000 0.000000
vn 1.000000 0.000000 0.000000
vn 1.000000 0.000000 0.000000
vn 1.000000 0.000000 0.000000
vn -1.000000 0.000000 0.000000
vn -1.000000 0.000000 0.000000
vn -1.000000 0.000000 0.000000
vn -1.000000 0.000000 0.000000
vn 0.000000 -1.000000 0.000000
vn 0.000000 -1.000000 0.000000
vn 0.000000 0.000000 -1.000000
vn 0.000000 0.000000 -1.000000
vn 0.000000 1.000000 0.000000
vn 0.000000 1.000000 0.000000
vn 0.000000 0.000000 1.000000
vn 0.000000 0.000000 1.000000
vn 0.000000 1.000000 0.000000
vn 0.318582 0.892755 0.318582
vn 0.502316 0.703816 0.502316
vn 1.000000 0.000000 0.000000
vn 1.000000 0.000000 0.000000
vn 0.000000 -1.000000 0.000000
vn 0.000000 -1.000000 0.000000
vn 0.000000 -1.000000 0.000000
vn -1.000000 0.000000 0.000000
vn -1.000000 0.000000 0.000000
s 1
g corner_inf
usemtl initialShadingGroup
f 12/19/1 9/15/2 2/2/3 4/4/4
s 2
f 11/18/5 14/22/6 15/23/7 6/6/8
s 3
f 10/17/9 11/18/10 6/6/11 8/8/12
s 4
f 16/25/13 17/27/14 10/17/15 8/8/16
s 5
f 15/24/17 16/26/18 8/11/19 6/12/20
s 6
f 7/13/21 18/28/22 13/20/23 5/14/24
s 4
f 7/7/25 10/17/15 17/27/14 18/29/26
s 3
f 5/5/27 11/18/10 10/17/9 7/7/28
s 2
f 13/21/29 14/22/6 11/18/5 5/5/30
s 1
f 1/1/31 9/15/2 12/19/1 3/3/32
s 2
f 3/3/33 12/19/34 14/22/6 13/21/29
f 15/23/7 14/22/6 12/19/34 4/4/35
s 5
f 2/2/36 16/26/18 15/24/17 4/4/37
s 4
f 9/16/38 17/27/14 16/25/13 2/10/39
f 18/29/26 17/27/14 9/16/38 1/9/40
s 6
f 13/20/23 18/28/22 1/1/41 3/3/42
