# This file uses centimeters as units for non-parametric coordinates.

mtllib corner.mtl
g default
v -0.500000 -0.500000 0.500000
v 0.500000 -0.500000 0.500000
v -0.500000 -0.213704 0.500000
v 0.500000 -0.213704 0.500000
v -0.500000 0.500000 -0.500000
v 0.500000 -0.213704 -0.500000
v -0.500000 -0.500000 -0.500000
v 0.500000 -0.500000 -0.500000
v 0.000000 -0.500000 0.500000
v 0.000000 -0.500000 -0.500000
v 0.000000 0.500000 -0.500000
v 0.000000 -0.213704 0.500000
v -0.500000 0.500000 0.000000
v 0.000000 0.500000 0.000000
v 0.500000 -0.213704 0.000000
v 0.500000 -0.500000 0.000000
v 0.000000 -0.500000 0.000000
v -0.500000 -0.500000 0.000000
vt 0.347567 0.114604
vt 0.585114 0.225059
vt 0.314827 0.181053
vt 0.557327 0.294368
vt 0.175979 0.530707
vt 0.499307 0.569730
vt 0.303614 0.777478
vt 0.535833 0.638142
vt 0.443992 1.000000
vt 0.668503 0.863561
vt 0.825959 0.322596
vt 0.798088 0.391541
vt 0.114359 0.000000
vt 0.000000 0.233189
vt 0.464156 0.173967
vt 0.556753 0.932310
vt 0.423760 0.712229
vt 0.295548 0.518878
vt 0.433172 0.241550
vt 0.116604 0.290363
vt 0.196210 0.376103
vt 0.311130 0.411127
vt 0.516733 0.424004
vt 0.677689 0.342874
vt 0.601182 0.752016
vt 0.705555 0.273907
vt 0.489632 0.821717
vt 0.230963 0.057184
vt 0.375495 0.888977
vn 0.000000 0.000000 1.000000
vn 0.000000 0.000000 1.000000
vn 0.000000 0.000000 1.000000
vn 0.000000 0.000000 1.000000
vn 0.580925 0.813957 0.000000
vn 0.414506 0.810166 0.414506
vn 0.710016 0.663222 0.236672
vn 0.819012 0.573776 0.000000
vn 0.000000 0.000000 -1.000000
vn 0.000000 0.000000 -1.000000
vn 0.000000 0.000000 -1.000000
vn 0.000000 0.000000 -1.000000
vn 0.000000 -1.000000 0.000000
vn 0.000000 -1.000000 0.000000
vn 0.000000 -1.000000 0.000000
vn 0.000000 -1.000000 0.000000
vn 1.000000 0.000000 0.000000
vn 1.000000 0.000000 0.000000
vn 1.000000 0.000000 0.000000
vn 1.000000 0.000000 0.000000
vn -1.000000 0.000000 0.000000
vn -1.000000 0.000000 0.000000
vn -1.000000 0.000000 0.000000
vn -1.000000 0.000000 0.000000
vn 0.000000 -1.000000 0.000000
vn 0.000000 -1.000000 0.000000
vn 0.000000 0.000000 -1.000000
vn 0.000000 0.000000 -1.000000
vn 0.000000 0.813957 0.580925
vn 0.000000 1.000000 0.000000
vn 0.000000 0.000000 1.000000
vn 0.000000 0.000000 1.000000
vn 0.000000 0.573776 0.819012
vn 0.236672 0.663222 0.710016
vn 0.502316 0.703816 0.502316
vn 1.000000 0.000000 0.000000
vn 1.000000 0.000000 0.000000
vn 0.000000 -1.000000 0.000000
vn 0.000000 -1.000000 0.000000
vn 0.000000 -1.000000 0.000000
vn -1.000000 0.000000 0.000000
vn -1.000000 0.000000 0.000000
s 1
g corner
usemtl initialShadingGroup
f 12/19/1 9/15/2 2/2/3 4/4/4
s 2
f 11/18/5 14/22/6 15/23/7 6/6/8
s 3
f 10/17/9 11/18/10 6/6/11 8/8/12
s 4
f 16/25/13 17/27/14 10/17/15 8/8/16
s 5
f 15/24/17 16/26/18 8/11/19 6/12/20
s 6
f 7/13/21 18/28/22 13/20/23 5/14/24
s 4
f 7/7/25 10/17/15 17/27/14 18/29/26
s 3
f 5/5/27 11/18/10 10/17/9 7/7/28
s 2
f 13/21/29 14/22/6 11/18/5 5/5/30
s 1
f 1/1/31 9/15/2 12/19/1 3/3/32
s 2
f 3/3/33 12/19/34 14/22/6 13/21/29
f 15/23/7 14/22/6 12/19/34 4/4/35
s 5
f 2/2/36 16/26/18 15/24/17 4/4/37
s 4
f 9/16/38 17/27/14 16/25/13 2/10/39
f 18/29/26 17/27/14 9/16/38 1/9/40
s 6
f 13/20/23 18/28/22 1/1/41 3/3/42
