# This file uses centimeters as units for non-parametric coordinates.

mtllib strait.mtl
g default
v -0.500000 -0.500000 0.500000
v 0.500000 -0.500000 0.500000
v -0.500000 -0.213704 0.500000
v 0.500000 -0.213704 0.500000
v -0.500000 0.500000 -0.500000
v 0.500000 0.500000 -0.500000
v -0.500000 -0.500000 -0.500000
v 0.500000 -0.500000 -0.500000
v 0.000000 -0.500000 0.500000
v 0.000000 -0.500000 -0.500000
v 0.000000 0.500000 -0.500000
v 0.000000 -0.213704 0.500000
v -0.500000 0.500000 0.000000
v 0.000000 0.500000 0.000000
v 0.500000 0.500000 0.000000
v 0.500000 -0.500000 0.000000
v 0.000000 -0.500000 0.000000
v -0.500000 -0.500000 0.000000
vt 0.276401 0.006635
vt 0.546168 0.013269
vt 0.274502 0.083868
vt 0.544269 0.090502
vt 0.265403 0.453832
vt 0.535170 0.460466
vt 0.258769 0.723599
vt 0.528536 0.730233
vt 0.252134 0.993365
vt 0.521901 1.000000
vt 0.815935 0.019904
vt 0.809301 0.289671
vt 0.006635 0.000000
vt 0.000000 0.269767
vt 0.411285 0.009952
vt 0.387018 0.996683
vt 0.393652 0.726916
vt 0.400287 0.457149
vt 0.409386 0.087185
vt 0.134883 0.273084
vt 0.268721 0.318948
vt 0.403604 0.322265
vt 0.538487 0.325583
vt 0.674417 0.286353
vt 0.525218 0.865117
vt 0.681052 0.016586
vt 0.390335 0.861799
vt 0.141518 0.003317
vt 0.255452 0.858482
vn 0.000000 0.000000 1.000000
vn 0.000000 0.000000 1.000000
vn 0.000000 0.000000 1.000000
vn 0.000000 0.000000 1.000000
vn 0.000000 1.000000 0.000000
vn 0.000000 0.813957 0.580925
vn 0.000000 0.813957 0.580925
vn 0.000000 1.000000 0.000000
vn 0.000000 0.000000 -1.000000
vn 0.000000 0.000000 -1.000000
vn 0.000000 0.000000 -1.000000
vn 0.000000 0.000000 -1.000000
vn 0.000000 -1.000000 0.000000
vn 0.000000 -1.000000 0.000000
vn 0.000000 -1.000000 0.000000
vn 0.000000 -1.000000 0.000000
vn 1.000000 0.000000 0.000000
vn 1.000000 0.000000 0.000000
vn 1.000000 0.000000 0.000000
vn 1.000000 0.000000 0.000000
vn -1.000000 0.000000 0.000000
vn -1.000000 0.000000 0.000000
vn -1.000000 0.000000 0.000000
vn -1.000000 0.000000 0.000000
vn 0.000000 -1.000000 0.000000
vn 0.000000 -1.000000 0.000000
vn 0.000000 0.000000 -1.000000
vn 0.000000 0.000000 -1.000000
vn 0.000000 0.813957 0.580925
vn 0.000000 1.000000 0.000000
vn 0.000000 0.000000 1.000000
vn 0.000000 0.000000 1.000000
vn 0.000000 0.573776 0.819012
vn 0.000000 0.573776 0.819012
vn 0.000000 0.573776 0.819012
vn 1.000000 0.000000 0.000000
vn 1.000000 0.000000 0.000000
vn 0.000000 -1.000000 0.000000
vn 0.000000 -1.000000 0.000000
vn 0.000000 -1.000000 0.000000
vn -1.000000 0.000000 0.000000
vn -1.000000 0.000000 0.000000
s 1
g strait
usemtl initialShadingGroup
f 12/19/1 9/15/2 2/2/3 4/4/4
s 2
f 11/18/5 14/22/6 15/23/7 6/6/8
s 3
f 10/17/9 11/18/10 6/6/11 8/8/12
s 4
f 16/25/13 17/27/14 10/17/15 8/8/16
s 5
f 15/24/17 16/26/18 8/11/19 6/12/20
s 6
f 7/13/21 18/28/22 13/20/23 5/14/24
s 4
f 7/7/25 10/17/15 17/27/14 18/29/26
s 3
f 5/5/27 11/18/10 10/17/9 7/7/28
s 2
f 13/21/29 14/22/6 11/18/5 5/5/30
s 1
f 1/1/31 9/15/2 12/19/1 3/3/32
s 2
f 3/3/33 12/19/34 14/22/6 13/21/29
f 15/23/7 14/22/6 12/19/34 4/4/35
s 5
f 2/2/36 16/26/18 15/24/17 4/4/37
s 4
f 9/16/38 17/27/14 16/25/13 2/10/39
f 18/29/26 17/27/14 9/16/38 1/9/40
s 6
f 13/20/23 18/28/22 1/1/41 3/3/42
